<?xml version="1.0" encoding="UTF-8"?>
<svg id="Calque_1" data-name="Calque 1" xmlns="http://www.w3.org/2000/svg" viewBox="0 0 1987.64 1057">
  <defs>
    <style>
      .cls-1 {
        fill: #a6ba9b;
        stroke-width: 0px;
      }
    </style>
  </defs>
  <circle class="cls-1" cx="43.64" cy="1046" r="11"/>
  <circle class="cls-1" cx="111.43" cy="1046" r="11"/>
  <circle class="cls-1" cx="179.21" cy="1046" r="11"/>
  <circle class="cls-1" cx="247" cy="1046" r="11"/>
  <circle class="cls-1" cx="314.79" cy="1046" r="11"/>
  <circle class="cls-1" cx="382.57" cy="1046" r="11"/>
  <circle class="cls-1" cx="450.36" cy="1046" r="11"/>
  <circle class="cls-1" cx="518.14" cy="1046" r="11"/>
  <circle class="cls-1" cx="585.93" cy="1046" r="11"/>
  <circle class="cls-1" cx="653.71" cy="1046" r="11"/>
  <circle class="cls-1" cx="721.5" cy="1046" r="11"/>
  <circle class="cls-1" cx="789.29" cy="1046" r="11"/>
  <circle class="cls-1" cx="857.07" cy="1046" r="11"/>
  <circle class="cls-1" cx="924.86" cy="1046" r="11"/>
  <circle class="cls-1" cx="992.64" cy="1046" r="11"/>
  <circle class="cls-1" cx="1060.43" cy="1046" r="11"/>
  <circle class="cls-1" cx="1128.21" cy="1046" r="11"/>
  <circle class="cls-1" cx="1196" cy="1046" r="11"/>
  <circle class="cls-1" cx="1263.79" cy="1046" r="11"/>
  <circle class="cls-1" cx="1331.57" cy="1046" r="11"/>
  <circle class="cls-1" cx="1399.36" cy="1046" r="11"/>
  <circle class="cls-1" cx="1467.14" cy="1046" r="11"/>
  <circle class="cls-1" cx="1534.93" cy="1046" r="11"/>
  <circle class="cls-1" cx="1602.71" cy="1046" r="11"/>
  <circle class="cls-1" cx="1670.5" cy="1046" r="11"/>
  <circle class="cls-1" cx="1738.29" cy="1046" r="11"/>
  <circle class="cls-1" cx="1806.07" cy="1046" r="11"/>
  <circle class="cls-1" cx="1873.86" cy="1046" r="11"/>
  <circle class="cls-1" cx="1941.64" cy="1046" r="11"/>
  <circle class="cls-1" cx="78.64" cy="987" r="11"/>
  <circle class="cls-1" cx="146.43" cy="987" r="11"/>
  <circle class="cls-1" cx="214.21" cy="987" r="11"/>
  <circle class="cls-1" cx="282" cy="987" r="11"/>
  <circle class="cls-1" cx="11" cy="987" r="11"/>
  <circle class="cls-1" cx="349.79" cy="987" r="11"/>
  <circle class="cls-1" cx="417.57" cy="987" r="11"/>
  <circle class="cls-1" cx="485.36" cy="987" r="11"/>
  <circle class="cls-1" cx="553.14" cy="987" r="11"/>
  <circle class="cls-1" cx="620.93" cy="987" r="11"/>
  <circle class="cls-1" cx="688.71" cy="987" r="11"/>
  <circle class="cls-1" cx="756.5" cy="987" r="11"/>
  <circle class="cls-1" cx="824.29" cy="987" r="11"/>
  <circle class="cls-1" cx="892.07" cy="987" r="11"/>
  <circle class="cls-1" cx="959.86" cy="987" r="11"/>
  <circle class="cls-1" cx="1027.64" cy="987" r="11"/>
  <circle class="cls-1" cx="1095.43" cy="987" r="11"/>
  <circle class="cls-1" cx="1163.21" cy="987" r="11"/>
  <circle class="cls-1" cx="1231" cy="987" r="11"/>
  <circle class="cls-1" cx="1298.79" cy="987" r="11"/>
  <circle class="cls-1" cx="1366.57" cy="987" r="11"/>
  <circle class="cls-1" cx="1434.36" cy="987" r="11"/>
  <circle class="cls-1" cx="1502.14" cy="987" r="11"/>
  <circle class="cls-1" cx="1569.93" cy="987" r="11"/>
  <circle class="cls-1" cx="1637.71" cy="987" r="11"/>
  <circle class="cls-1" cx="1705.5" cy="987" r="11"/>
  <circle class="cls-1" cx="1773.29" cy="987" r="11"/>
  <circle class="cls-1" cx="1841.07" cy="987" r="11"/>
  <circle class="cls-1" cx="1908.86" cy="987" r="11"/>
  <circle class="cls-1" cx="1976.64" cy="987" r="11"/>
  <circle class="cls-1" cx="43.64" cy="931" r="11"/>
  <circle class="cls-1" cx="111.43" cy="931" r="11"/>
  <circle class="cls-1" cx="179.21" cy="931" r="11"/>
  <circle class="cls-1" cx="247" cy="931" r="11"/>
  <circle class="cls-1" cx="314.79" cy="931" r="11"/>
  <circle class="cls-1" cx="382.57" cy="931" r="11"/>
  <circle class="cls-1" cx="450.36" cy="931" r="11"/>
  <circle class="cls-1" cx="518.14" cy="931" r="11"/>
  <circle class="cls-1" cx="585.93" cy="931" r="11"/>
  <circle class="cls-1" cx="653.71" cy="931" r="11"/>
  <circle class="cls-1" cx="721.5" cy="931" r="11"/>
  <circle class="cls-1" cx="789.29" cy="931" r="11"/>
  <circle class="cls-1" cx="857.07" cy="931" r="11"/>
  <circle class="cls-1" cx="924.86" cy="931" r="11"/>
  <circle class="cls-1" cx="992.64" cy="931" r="11"/>
  <circle class="cls-1" cx="1060.43" cy="931" r="11"/>
  <circle class="cls-1" cx="1128.21" cy="931" r="11"/>
  <circle class="cls-1" cx="1196" cy="931" r="11"/>
  <circle class="cls-1" cx="1263.79" cy="931" r="11"/>
  <circle class="cls-1" cx="1331.57" cy="931" r="11"/>
  <circle class="cls-1" cx="1399.36" cy="931" r="11"/>
  <circle class="cls-1" cx="1467.14" cy="931" r="11"/>
  <circle class="cls-1" cx="1534.93" cy="931" r="11"/>
  <circle class="cls-1" cx="1602.71" cy="931" r="11"/>
  <circle class="cls-1" cx="1670.5" cy="931" r="11"/>
  <circle class="cls-1" cx="1738.29" cy="931" r="11"/>
  <circle class="cls-1" cx="1806.07" cy="931" r="11"/>
  <circle class="cls-1" cx="1873.86" cy="931" r="11"/>
  <circle class="cls-1" cx="1941.64" cy="931" r="11"/>
  <circle class="cls-1" cx="78.64" cy="872" r="11"/>
  <circle class="cls-1" cx="146.43" cy="872" r="11"/>
  <circle class="cls-1" cx="214.21" cy="872" r="11"/>
  <circle class="cls-1" cx="282" cy="872" r="11"/>
  <circle class="cls-1" cx="11" cy="872" r="11"/>
  <circle class="cls-1" cx="349.79" cy="872" r="11"/>
  <circle class="cls-1" cx="417.57" cy="872" r="11"/>
  <circle class="cls-1" cx="485.36" cy="872" r="11"/>
  <circle class="cls-1" cx="553.14" cy="872" r="11"/>
  <circle class="cls-1" cx="620.93" cy="872" r="11"/>
  <circle class="cls-1" cx="688.71" cy="872" r="11"/>
  <circle class="cls-1" cx="756.5" cy="872" r="11"/>
  <circle class="cls-1" cx="824.29" cy="872" r="11"/>
  <circle class="cls-1" cx="892.07" cy="872" r="11"/>
  <circle class="cls-1" cx="959.86" cy="872" r="11"/>
  <circle class="cls-1" cx="1027.64" cy="872" r="11"/>
  <circle class="cls-1" cx="1095.43" cy="872" r="11"/>
  <circle class="cls-1" cx="1163.21" cy="872" r="11"/>
  <circle class="cls-1" cx="1231" cy="872" r="11"/>
  <circle class="cls-1" cx="1298.79" cy="872" r="11"/>
  <circle class="cls-1" cx="1366.57" cy="872" r="11"/>
  <circle class="cls-1" cx="1434.36" cy="872" r="11"/>
  <circle class="cls-1" cx="1502.14" cy="872" r="11"/>
  <circle class="cls-1" cx="1569.93" cy="872" r="11"/>
  <circle class="cls-1" cx="1637.71" cy="872" r="11"/>
  <circle class="cls-1" cx="1705.5" cy="872" r="11"/>
  <circle class="cls-1" cx="1773.29" cy="872" r="11"/>
  <circle class="cls-1" cx="1841.07" cy="872" r="11"/>
  <circle class="cls-1" cx="1908.86" cy="872" r="11"/>
  <circle class="cls-1" cx="1976.64" cy="872" r="11"/>
  <circle class="cls-1" cx="43.64" cy="816" r="11"/>
  <circle class="cls-1" cx="111.43" cy="816" r="11"/>
  <circle class="cls-1" cx="179.21" cy="816" r="11"/>
  <circle class="cls-1" cx="247" cy="816" r="11"/>
  <circle class="cls-1" cx="314.79" cy="816" r="11"/>
  <circle class="cls-1" cx="382.57" cy="816" r="11"/>
  <circle class="cls-1" cx="450.36" cy="816" r="11"/>
  <circle class="cls-1" cx="518.14" cy="816" r="11"/>
  <circle class="cls-1" cx="585.93" cy="816" r="11"/>
  <circle class="cls-1" cx="653.71" cy="816" r="11"/>
  <circle class="cls-1" cx="721.5" cy="816" r="11"/>
  <circle class="cls-1" cx="789.29" cy="816" r="11"/>
  <circle class="cls-1" cx="857.07" cy="816" r="11"/>
  <circle class="cls-1" cx="924.86" cy="816" r="11"/>
  <circle class="cls-1" cx="992.64" cy="816" r="11"/>
  <circle class="cls-1" cx="1060.43" cy="816" r="11"/>
  <circle class="cls-1" cx="1128.21" cy="816" r="11"/>
  <circle class="cls-1" cx="1196" cy="816" r="11"/>
  <circle class="cls-1" cx="1263.79" cy="816" r="11"/>
  <circle class="cls-1" cx="1331.57" cy="816" r="11"/>
  <circle class="cls-1" cx="1399.36" cy="816" r="11"/>
  <circle class="cls-1" cx="1467.14" cy="816" r="11"/>
  <circle class="cls-1" cx="1534.93" cy="816" r="11"/>
  <circle class="cls-1" cx="1602.71" cy="816" r="11"/>
  <circle class="cls-1" cx="1670.5" cy="816" r="11"/>
  <circle class="cls-1" cx="1738.29" cy="816" r="11"/>
  <circle class="cls-1" cx="1806.07" cy="816" r="11"/>
  <circle class="cls-1" cx="1873.86" cy="816" r="11"/>
  <circle class="cls-1" cx="1941.64" cy="816" r="11"/>
  <circle class="cls-1" cx="78.64" cy="757" r="11"/>
  <circle class="cls-1" cx="146.43" cy="757" r="11"/>
  <circle class="cls-1" cx="214.21" cy="757" r="11"/>
  <circle class="cls-1" cx="282" cy="757" r="11"/>
  <circle class="cls-1" cx="11" cy="757" r="11"/>
  <circle class="cls-1" cx="349.79" cy="757" r="11"/>
  <circle class="cls-1" cx="417.57" cy="757" r="11"/>
  <circle class="cls-1" cx="485.36" cy="757" r="11"/>
  <circle class="cls-1" cx="553.14" cy="757" r="11"/>
  <circle class="cls-1" cx="620.93" cy="757" r="11"/>
  <circle class="cls-1" cx="688.71" cy="757" r="11"/>
  <circle class="cls-1" cx="756.5" cy="757" r="11"/>
  <circle class="cls-1" cx="824.29" cy="757" r="11"/>
  <circle class="cls-1" cx="892.07" cy="757" r="11"/>
  <circle class="cls-1" cx="959.86" cy="757" r="11"/>
  <circle class="cls-1" cx="1027.64" cy="757" r="11"/>
  <circle class="cls-1" cx="1095.43" cy="757" r="11"/>
  <circle class="cls-1" cx="1163.21" cy="757" r="11"/>
  <circle class="cls-1" cx="1231" cy="757" r="11"/>
  <circle class="cls-1" cx="1298.79" cy="757" r="11"/>
  <circle class="cls-1" cx="1366.57" cy="757" r="11"/>
  <circle class="cls-1" cx="1434.36" cy="757" r="11"/>
  <circle class="cls-1" cx="1502.14" cy="757" r="11"/>
  <circle class="cls-1" cx="1569.93" cy="757" r="11"/>
  <circle class="cls-1" cx="1637.71" cy="757" r="11"/>
  <circle class="cls-1" cx="1705.5" cy="757" r="11"/>
  <circle class="cls-1" cx="1773.29" cy="757" r="11"/>
  <circle class="cls-1" cx="1841.07" cy="757" r="11"/>
  <circle class="cls-1" cx="1908.86" cy="757" r="11"/>
  <circle class="cls-1" cx="1976.64" cy="757" r="11"/>
  <circle class="cls-1" cx="43.64" cy="701" r="11"/>
  <circle class="cls-1" cx="111.43" cy="701" r="11"/>
  <circle class="cls-1" cx="179.21" cy="701" r="11"/>
  <circle class="cls-1" cx="247" cy="701" r="11"/>
  <circle class="cls-1" cx="314.79" cy="701" r="11"/>
  <circle class="cls-1" cx="382.57" cy="701" r="11"/>
  <circle class="cls-1" cx="450.36" cy="701" r="11"/>
  <circle class="cls-1" cx="518.14" cy="701" r="11"/>
  <circle class="cls-1" cx="585.93" cy="701" r="11"/>
  <circle class="cls-1" cx="653.71" cy="701" r="11"/>
  <circle class="cls-1" cx="721.5" cy="701" r="11"/>
  <circle class="cls-1" cx="789.29" cy="701" r="11"/>
  <circle class="cls-1" cx="857.07" cy="701" r="11"/>
  <circle class="cls-1" cx="924.86" cy="701" r="11"/>
  <circle class="cls-1" cx="992.64" cy="701" r="11"/>
  <circle class="cls-1" cx="1060.43" cy="701" r="11"/>
  <circle class="cls-1" cx="1128.21" cy="701" r="11"/>
  <circle class="cls-1" cx="1196" cy="701" r="11"/>
  <circle class="cls-1" cx="1263.79" cy="701" r="11"/>
  <circle class="cls-1" cx="1331.57" cy="701" r="11"/>
  <circle class="cls-1" cx="1399.36" cy="701" r="11"/>
  <circle class="cls-1" cx="1467.14" cy="701" r="11"/>
  <circle class="cls-1" cx="1534.93" cy="701" r="11"/>
  <circle class="cls-1" cx="1602.71" cy="701" r="11"/>
  <circle class="cls-1" cx="1670.5" cy="701" r="11"/>
  <circle class="cls-1" cx="1738.29" cy="701" r="11"/>
  <circle class="cls-1" cx="1806.07" cy="701" r="11"/>
  <circle class="cls-1" cx="1873.86" cy="701" r="11"/>
  <circle class="cls-1" cx="1941.64" cy="701" r="11"/>
  <circle class="cls-1" cx="78.64" cy="642" r="11"/>
  <circle class="cls-1" cx="146.43" cy="642" r="11"/>
  <circle class="cls-1" cx="214.21" cy="642" r="11"/>
  <circle class="cls-1" cx="282" cy="642" r="11"/>
  <circle class="cls-1" cx="11" cy="642" r="11"/>
  <circle class="cls-1" cx="349.79" cy="642" r="11"/>
  <circle class="cls-1" cx="417.57" cy="642" r="11"/>
  <circle class="cls-1" cx="485.36" cy="642" r="11"/>
  <circle class="cls-1" cx="553.14" cy="642" r="11"/>
  <circle class="cls-1" cx="620.93" cy="642" r="11"/>
  <circle class="cls-1" cx="688.71" cy="642" r="11"/>
  <circle class="cls-1" cx="756.5" cy="642" r="11"/>
  <circle class="cls-1" cx="824.29" cy="642" r="11"/>
  <circle class="cls-1" cx="892.07" cy="642" r="11"/>
  <circle class="cls-1" cx="959.86" cy="642" r="11"/>
  <circle class="cls-1" cx="1027.64" cy="642" r="11"/>
  <circle class="cls-1" cx="1095.43" cy="642" r="11"/>
  <circle class="cls-1" cx="1163.21" cy="642" r="11"/>
  <circle class="cls-1" cx="1231" cy="642" r="11"/>
  <circle class="cls-1" cx="1298.79" cy="642" r="11"/>
  <circle class="cls-1" cx="1366.57" cy="642" r="11"/>
  <circle class="cls-1" cx="1434.36" cy="642" r="11"/>
  <circle class="cls-1" cx="1502.14" cy="642" r="11"/>
  <circle class="cls-1" cx="1569.93" cy="642" r="11"/>
  <circle class="cls-1" cx="1637.71" cy="642" r="11"/>
  <circle class="cls-1" cx="1705.5" cy="642" r="11"/>
  <circle class="cls-1" cx="1773.29" cy="642" r="11"/>
  <circle class="cls-1" cx="1841.07" cy="642" r="11"/>
  <circle class="cls-1" cx="1908.86" cy="642" r="11"/>
  <circle class="cls-1" cx="1976.64" cy="642" r="11"/>
  <circle class="cls-1" cx="43.64" cy="586" r="11"/>
  <circle class="cls-1" cx="111.43" cy="586" r="11"/>
  <circle class="cls-1" cx="179.21" cy="586" r="11"/>
  <circle class="cls-1" cx="247" cy="586" r="11"/>
  <circle class="cls-1" cx="314.79" cy="586" r="11"/>
  <circle class="cls-1" cx="382.57" cy="586" r="11"/>
  <circle class="cls-1" cx="450.36" cy="586" r="11"/>
  <circle class="cls-1" cx="518.14" cy="586" r="11"/>
  <circle class="cls-1" cx="585.93" cy="586" r="11"/>
  <circle class="cls-1" cx="653.71" cy="586" r="11"/>
  <circle class="cls-1" cx="721.5" cy="586" r="11"/>
  <circle class="cls-1" cx="789.29" cy="586" r="11"/>
  <circle class="cls-1" cx="857.07" cy="586" r="11"/>
  <circle class="cls-1" cx="924.86" cy="586" r="11"/>
  <circle class="cls-1" cx="992.64" cy="586" r="11"/>
  <circle class="cls-1" cx="1060.43" cy="586" r="11"/>
  <circle class="cls-1" cx="1128.21" cy="586" r="11"/>
  <circle class="cls-1" cx="1196" cy="586" r="11"/>
  <circle class="cls-1" cx="1263.79" cy="586" r="11"/>
  <circle class="cls-1" cx="1331.57" cy="586" r="11"/>
  <circle class="cls-1" cx="1399.36" cy="586" r="11"/>
  <circle class="cls-1" cx="1467.14" cy="586" r="11"/>
  <circle class="cls-1" cx="1534.93" cy="586" r="11"/>
  <circle class="cls-1" cx="1602.71" cy="586" r="11"/>
  <circle class="cls-1" cx="1670.5" cy="586" r="11"/>
  <circle class="cls-1" cx="1738.29" cy="586" r="11"/>
  <circle class="cls-1" cx="1806.07" cy="586" r="11"/>
  <circle class="cls-1" cx="1873.86" cy="586" r="11"/>
  <circle class="cls-1" cx="1941.64" cy="586" r="11"/>
  <circle class="cls-1" cx="78.64" cy="527" r="11"/>
  <circle class="cls-1" cx="146.43" cy="527" r="11"/>
  <circle class="cls-1" cx="214.21" cy="527" r="11"/>
  <circle class="cls-1" cx="282" cy="527" r="11"/>
  <circle class="cls-1" cx="11" cy="527" r="11"/>
  <circle class="cls-1" cx="349.79" cy="527" r="11"/>
  <circle class="cls-1" cx="417.57" cy="527" r="11"/>
  <circle class="cls-1" cx="485.36" cy="527" r="11"/>
  <circle class="cls-1" cx="553.14" cy="527" r="11"/>
  <circle class="cls-1" cx="620.93" cy="527" r="11"/>
  <circle class="cls-1" cx="688.71" cy="527" r="11"/>
  <circle class="cls-1" cx="756.5" cy="527" r="11"/>
  <circle class="cls-1" cx="824.29" cy="527" r="11"/>
  <circle class="cls-1" cx="892.07" cy="527" r="11"/>
  <circle class="cls-1" cx="959.86" cy="527" r="11"/>
  <circle class="cls-1" cx="1027.64" cy="527" r="11"/>
  <circle class="cls-1" cx="1095.43" cy="527" r="11"/>
  <circle class="cls-1" cx="1163.21" cy="527" r="11"/>
  <circle class="cls-1" cx="1231" cy="527" r="11"/>
  <circle class="cls-1" cx="1298.79" cy="527" r="11"/>
  <circle class="cls-1" cx="1366.57" cy="527" r="11"/>
  <circle class="cls-1" cx="1434.36" cy="527" r="11"/>
  <circle class="cls-1" cx="1502.14" cy="527" r="11"/>
  <circle class="cls-1" cx="1569.93" cy="527" r="11"/>
  <circle class="cls-1" cx="1637.71" cy="527" r="11"/>
  <circle class="cls-1" cx="1705.5" cy="527" r="11"/>
  <circle class="cls-1" cx="1773.29" cy="527" r="11"/>
  <circle class="cls-1" cx="1841.07" cy="527" r="11"/>
  <circle class="cls-1" cx="1908.86" cy="527" r="11"/>
  <circle class="cls-1" cx="1976.64" cy="527" r="11"/>
  <circle class="cls-1" cx="43.64" cy="471" r="11"/>
  <circle class="cls-1" cx="111.43" cy="471" r="11"/>
  <circle class="cls-1" cx="179.21" cy="471" r="11"/>
  <circle class="cls-1" cx="247" cy="471" r="11"/>
  <circle class="cls-1" cx="314.79" cy="471" r="11"/>
  <circle class="cls-1" cx="382.57" cy="471" r="11"/>
  <circle class="cls-1" cx="450.36" cy="471" r="11"/>
  <circle class="cls-1" cx="518.14" cy="471" r="11"/>
  <circle class="cls-1" cx="585.93" cy="471" r="11"/>
  <circle class="cls-1" cx="653.71" cy="471" r="11"/>
  <circle class="cls-1" cx="721.5" cy="471" r="11"/>
  <circle class="cls-1" cx="789.29" cy="471" r="11"/>
  <circle class="cls-1" cx="857.07" cy="471" r="11"/>
  <circle class="cls-1" cx="924.86" cy="471" r="11"/>
  <circle class="cls-1" cx="992.64" cy="471" r="11"/>
  <circle class="cls-1" cx="1060.43" cy="471" r="11"/>
  <circle class="cls-1" cx="1128.21" cy="471" r="11"/>
  <circle class="cls-1" cx="1196" cy="471" r="11"/>
  <circle class="cls-1" cx="1263.79" cy="471" r="11"/>
  <circle class="cls-1" cx="1331.57" cy="471" r="11"/>
  <circle class="cls-1" cx="1399.36" cy="471" r="11"/>
  <circle class="cls-1" cx="1467.14" cy="471" r="11"/>
  <circle class="cls-1" cx="1534.93" cy="471" r="11"/>
  <circle class="cls-1" cx="1602.71" cy="471" r="11"/>
  <circle class="cls-1" cx="1670.5" cy="471" r="11"/>
  <circle class="cls-1" cx="1738.29" cy="471" r="11"/>
  <circle class="cls-1" cx="1806.07" cy="471" r="11"/>
  <circle class="cls-1" cx="1873.86" cy="471" r="11"/>
  <circle class="cls-1" cx="1941.64" cy="471" r="11"/>
  <circle class="cls-1" cx="78.64" cy="412" r="11"/>
  <circle class="cls-1" cx="146.43" cy="412" r="11"/>
  <circle class="cls-1" cx="214.21" cy="412" r="11"/>
  <circle class="cls-1" cx="282" cy="412" r="11"/>
  <circle class="cls-1" cx="11" cy="412" r="11"/>
  <circle class="cls-1" cx="349.79" cy="412" r="11"/>
  <circle class="cls-1" cx="417.57" cy="412" r="11"/>
  <circle class="cls-1" cx="485.36" cy="412" r="11"/>
  <circle class="cls-1" cx="553.14" cy="412" r="11"/>
  <circle class="cls-1" cx="620.93" cy="412" r="11"/>
  <circle class="cls-1" cx="688.71" cy="412" r="11"/>
  <circle class="cls-1" cx="756.5" cy="412" r="11"/>
  <circle class="cls-1" cx="824.29" cy="412" r="11"/>
  <circle class="cls-1" cx="892.07" cy="412" r="11"/>
  <circle class="cls-1" cx="959.86" cy="412" r="11"/>
  <circle class="cls-1" cx="1027.64" cy="412" r="11"/>
  <circle class="cls-1" cx="1095.43" cy="412" r="11"/>
  <circle class="cls-1" cx="1163.21" cy="412" r="11"/>
  <circle class="cls-1" cx="1231" cy="412" r="11"/>
  <circle class="cls-1" cx="1298.79" cy="412" r="11"/>
  <circle class="cls-1" cx="1366.57" cy="412" r="11"/>
  <circle class="cls-1" cx="1434.36" cy="412" r="11"/>
  <circle class="cls-1" cx="1502.14" cy="412" r="11"/>
  <circle class="cls-1" cx="1569.93" cy="412" r="11"/>
  <circle class="cls-1" cx="1637.71" cy="412" r="11"/>
  <circle class="cls-1" cx="1705.5" cy="412" r="11"/>
  <circle class="cls-1" cx="1773.29" cy="412" r="11"/>
  <circle class="cls-1" cx="1841.07" cy="412" r="11"/>
  <circle class="cls-1" cx="1908.86" cy="412" r="11"/>
  <circle class="cls-1" cx="1976.64" cy="412" r="11"/>
  <circle class="cls-1" cx="43.64" cy="356" r="11"/>
  <circle class="cls-1" cx="111.43" cy="356" r="11"/>
  <circle class="cls-1" cx="179.21" cy="356" r="11"/>
  <circle class="cls-1" cx="247" cy="356" r="11"/>
  <circle class="cls-1" cx="314.79" cy="356" r="11"/>
  <circle class="cls-1" cx="382.57" cy="356" r="11"/>
  <circle class="cls-1" cx="450.36" cy="356" r="11"/>
  <circle class="cls-1" cx="518.14" cy="356" r="11"/>
  <circle class="cls-1" cx="585.93" cy="356" r="11"/>
  <circle class="cls-1" cx="653.71" cy="356" r="11"/>
  <circle class="cls-1" cx="721.5" cy="356" r="11"/>
  <circle class="cls-1" cx="789.29" cy="356" r="11"/>
  <circle class="cls-1" cx="857.07" cy="356" r="11"/>
  <circle class="cls-1" cx="924.86" cy="356" r="11"/>
  <circle class="cls-1" cx="992.64" cy="356" r="11"/>
  <circle class="cls-1" cx="1060.43" cy="356" r="11"/>
  <circle class="cls-1" cx="1128.21" cy="356" r="11"/>
  <circle class="cls-1" cx="1196" cy="356" r="11"/>
  <circle class="cls-1" cx="1263.79" cy="356" r="11"/>
  <circle class="cls-1" cx="1331.57" cy="356" r="11"/>
  <circle class="cls-1" cx="1399.36" cy="356" r="11"/>
  <circle class="cls-1" cx="1467.14" cy="356" r="11"/>
  <circle class="cls-1" cx="1534.93" cy="356" r="11"/>
  <circle class="cls-1" cx="1602.71" cy="356" r="11"/>
  <circle class="cls-1" cx="1670.5" cy="356" r="11"/>
  <circle class="cls-1" cx="1738.29" cy="356" r="11"/>
  <circle class="cls-1" cx="1806.07" cy="356" r="11"/>
  <circle class="cls-1" cx="1873.86" cy="356" r="11"/>
  <circle class="cls-1" cx="1941.64" cy="356" r="11"/>
  <circle class="cls-1" cx="78.64" cy="297" r="11"/>
  <circle class="cls-1" cx="146.43" cy="297" r="11"/>
  <circle class="cls-1" cx="214.21" cy="297" r="11"/>
  <circle class="cls-1" cx="282" cy="297" r="11"/>
  <circle class="cls-1" cx="11" cy="297" r="11"/>
  <circle class="cls-1" cx="349.79" cy="297" r="11"/>
  <circle class="cls-1" cx="417.57" cy="297" r="11"/>
  <circle class="cls-1" cx="485.36" cy="297" r="11"/>
  <circle class="cls-1" cx="553.14" cy="297" r="11"/>
  <circle class="cls-1" cx="620.93" cy="297" r="11"/>
  <circle class="cls-1" cx="688.71" cy="297" r="11"/>
  <circle class="cls-1" cx="756.5" cy="297" r="11"/>
  <circle class="cls-1" cx="824.29" cy="297" r="11"/>
  <circle class="cls-1" cx="892.07" cy="297" r="11"/>
  <circle class="cls-1" cx="959.86" cy="297" r="11"/>
  <circle class="cls-1" cx="1027.64" cy="297" r="11"/>
  <circle class="cls-1" cx="1095.43" cy="297" r="11"/>
  <circle class="cls-1" cx="1163.21" cy="297" r="11"/>
  <circle class="cls-1" cx="1231" cy="297" r="11"/>
  <circle class="cls-1" cx="1298.79" cy="297" r="11"/>
  <circle class="cls-1" cx="1366.57" cy="297" r="11"/>
  <circle class="cls-1" cx="1434.36" cy="297" r="11"/>
  <circle class="cls-1" cx="1502.14" cy="297" r="11"/>
  <circle class="cls-1" cx="1569.93" cy="297" r="11"/>
  <circle class="cls-1" cx="1637.71" cy="297" r="11"/>
  <circle class="cls-1" cx="1705.5" cy="297" r="11"/>
  <circle class="cls-1" cx="1773.29" cy="297" r="11"/>
  <circle class="cls-1" cx="1841.07" cy="297" r="11"/>
  <circle class="cls-1" cx="1908.86" cy="297" r="11"/>
  <circle class="cls-1" cx="1976.64" cy="297" r="11"/>
  <circle class="cls-1" cx="43.64" cy="241" r="11"/>
  <circle class="cls-1" cx="111.43" cy="241" r="11"/>
  <circle class="cls-1" cx="179.21" cy="241" r="11"/>
  <circle class="cls-1" cx="247" cy="241" r="11"/>
  <circle class="cls-1" cx="314.79" cy="241" r="11"/>
  <circle class="cls-1" cx="382.57" cy="241" r="11"/>
  <circle class="cls-1" cx="450.36" cy="241" r="11"/>
  <circle class="cls-1" cx="518.14" cy="241" r="11"/>
  <circle class="cls-1" cx="585.93" cy="241" r="11"/>
  <circle class="cls-1" cx="653.71" cy="241" r="11"/>
  <circle class="cls-1" cx="721.5" cy="241" r="11"/>
  <circle class="cls-1" cx="789.29" cy="241" r="11"/>
  <circle class="cls-1" cx="857.07" cy="241" r="11"/>
  <circle class="cls-1" cx="924.86" cy="241" r="11"/>
  <circle class="cls-1" cx="992.64" cy="241" r="11"/>
  <circle class="cls-1" cx="1060.43" cy="241" r="11"/>
  <circle class="cls-1" cx="1128.21" cy="241" r="11"/>
  <circle class="cls-1" cx="1196" cy="241" r="11"/>
  <circle class="cls-1" cx="1263.79" cy="241" r="11"/>
  <circle class="cls-1" cx="1331.57" cy="241" r="11"/>
  <circle class="cls-1" cx="1399.36" cy="241" r="11"/>
  <circle class="cls-1" cx="1467.14" cy="241" r="11"/>
  <circle class="cls-1" cx="1534.93" cy="241" r="11"/>
  <circle class="cls-1" cx="1602.71" cy="241" r="11"/>
  <circle class="cls-1" cx="1670.5" cy="241" r="11"/>
  <circle class="cls-1" cx="1738.29" cy="241" r="11"/>
  <circle class="cls-1" cx="1806.07" cy="241" r="11"/>
  <circle class="cls-1" cx="1873.86" cy="241" r="11"/>
  <circle class="cls-1" cx="1941.64" cy="241" r="11"/>
  <circle class="cls-1" cx="78.64" cy="182" r="11"/>
  <circle class="cls-1" cx="146.43" cy="182" r="11"/>
  <circle class="cls-1" cx="214.21" cy="182" r="11"/>
  <circle class="cls-1" cx="282" cy="182" r="11"/>
  <circle class="cls-1" cx="11" cy="182" r="11"/>
  <circle class="cls-1" cx="349.79" cy="182" r="11"/>
  <circle class="cls-1" cx="417.57" cy="182" r="11"/>
  <circle class="cls-1" cx="485.36" cy="182" r="11"/>
  <circle class="cls-1" cx="553.14" cy="182" r="11"/>
  <circle class="cls-1" cx="620.93" cy="182" r="11"/>
  <circle class="cls-1" cx="688.71" cy="182" r="11"/>
  <circle class="cls-1" cx="756.5" cy="182" r="11"/>
  <circle class="cls-1" cx="824.29" cy="182" r="11"/>
  <circle class="cls-1" cx="892.07" cy="182" r="11"/>
  <circle class="cls-1" cx="959.86" cy="182" r="11"/>
  <circle class="cls-1" cx="1027.64" cy="182" r="11"/>
  <circle class="cls-1" cx="1095.43" cy="182" r="11"/>
  <circle class="cls-1" cx="1163.21" cy="182" r="11"/>
  <circle class="cls-1" cx="1231" cy="182" r="11"/>
  <circle class="cls-1" cx="1298.79" cy="182" r="11"/>
  <circle class="cls-1" cx="1366.57" cy="182" r="11"/>
  <circle class="cls-1" cx="1434.36" cy="182" r="11"/>
  <circle class="cls-1" cx="1502.14" cy="182" r="11"/>
  <circle class="cls-1" cx="1569.93" cy="182" r="11"/>
  <circle class="cls-1" cx="1637.71" cy="182" r="11"/>
  <circle class="cls-1" cx="1705.5" cy="182" r="11"/>
  <circle class="cls-1" cx="1773.29" cy="182" r="11"/>
  <circle class="cls-1" cx="1841.07" cy="182" r="11"/>
  <circle class="cls-1" cx="1908.86" cy="182" r="11"/>
  <circle class="cls-1" cx="1976.64" cy="182" r="11"/>
  <circle class="cls-1" cx="43.64" cy="126" r="11"/>
  <circle class="cls-1" cx="111.43" cy="126" r="11"/>
  <circle class="cls-1" cx="179.21" cy="126" r="11"/>
  <circle class="cls-1" cx="247" cy="126" r="11"/>
  <circle class="cls-1" cx="314.79" cy="126" r="11"/>
  <circle class="cls-1" cx="382.57" cy="126" r="11"/>
  <circle class="cls-1" cx="450.36" cy="126" r="11"/>
  <circle class="cls-1" cx="518.14" cy="126" r="11"/>
  <circle class="cls-1" cx="585.93" cy="126" r="11"/>
  <circle class="cls-1" cx="653.71" cy="126" r="11"/>
  <circle class="cls-1" cx="721.5" cy="126" r="11"/>
  <circle class="cls-1" cx="789.29" cy="126" r="11"/>
  <circle class="cls-1" cx="857.07" cy="126" r="11"/>
  <circle class="cls-1" cx="924.86" cy="126" r="11"/>
  <circle class="cls-1" cx="992.64" cy="126" r="11"/>
  <circle class="cls-1" cx="1060.43" cy="126" r="11"/>
  <circle class="cls-1" cx="1128.21" cy="126" r="11"/>
  <circle class="cls-1" cx="1196" cy="126" r="11"/>
  <circle class="cls-1" cx="1263.79" cy="126" r="11"/>
  <circle class="cls-1" cx="1331.57" cy="126" r="11"/>
  <circle class="cls-1" cx="1399.36" cy="126" r="11"/>
  <circle class="cls-1" cx="1467.14" cy="126" r="11"/>
  <circle class="cls-1" cx="1534.93" cy="126" r="11"/>
  <circle class="cls-1" cx="1602.71" cy="126" r="11"/>
  <circle class="cls-1" cx="1670.5" cy="126" r="11"/>
  <circle class="cls-1" cx="1738.29" cy="126" r="11"/>
  <circle class="cls-1" cx="1806.07" cy="126" r="11"/>
  <circle class="cls-1" cx="1873.86" cy="126" r="11"/>
  <circle class="cls-1" cx="1941.64" cy="126" r="11"/>
  <circle class="cls-1" cx="78.64" cy="67" r="11"/>
  <circle class="cls-1" cx="146.43" cy="67" r="11"/>
  <circle class="cls-1" cx="214.21" cy="67" r="11"/>
  <circle class="cls-1" cx="282" cy="67" r="11"/>
  <circle class="cls-1" cx="11" cy="67" r="11"/>
  <circle class="cls-1" cx="349.79" cy="67" r="11"/>
  <circle class="cls-1" cx="417.57" cy="67" r="11"/>
  <circle class="cls-1" cx="485.36" cy="67" r="11"/>
  <circle class="cls-1" cx="553.14" cy="67" r="11"/>
  <circle class="cls-1" cx="620.93" cy="67" r="11"/>
  <circle class="cls-1" cx="688.71" cy="67" r="11"/>
  <circle class="cls-1" cx="756.5" cy="67" r="11"/>
  <circle class="cls-1" cx="824.29" cy="67" r="11"/>
  <circle class="cls-1" cx="892.07" cy="67" r="11"/>
  <circle class="cls-1" cx="959.86" cy="67" r="11"/>
  <circle class="cls-1" cx="1027.64" cy="67" r="11"/>
  <circle class="cls-1" cx="1095.43" cy="67" r="11"/>
  <circle class="cls-1" cx="1163.21" cy="67" r="11"/>
  <circle class="cls-1" cx="1231" cy="67" r="11"/>
  <circle class="cls-1" cx="1298.79" cy="67" r="11"/>
  <circle class="cls-1" cx="1366.57" cy="67" r="11"/>
  <circle class="cls-1" cx="1434.36" cy="67" r="11"/>
  <circle class="cls-1" cx="1502.14" cy="67" r="11"/>
  <circle class="cls-1" cx="1569.93" cy="67" r="11"/>
  <circle class="cls-1" cx="1637.71" cy="67" r="11"/>
  <circle class="cls-1" cx="1705.5" cy="67" r="11"/>
  <circle class="cls-1" cx="1773.29" cy="67" r="11"/>
  <circle class="cls-1" cx="1841.07" cy="67" r="11"/>
  <circle class="cls-1" cx="1908.86" cy="67" r="11"/>
  <circle class="cls-1" cx="1976.64" cy="67" r="11"/>
  <circle class="cls-1" cx="43.64" cy="11" r="11"/>
  <circle class="cls-1" cx="111.43" cy="11" r="11"/>
  <circle class="cls-1" cx="179.21" cy="11" r="11"/>
  <circle class="cls-1" cx="247" cy="11" r="11"/>
  <circle class="cls-1" cx="314.79" cy="11" r="11"/>
  <circle class="cls-1" cx="382.57" cy="11" r="11"/>
  <circle class="cls-1" cx="450.36" cy="11" r="11"/>
  <circle class="cls-1" cx="518.14" cy="11" r="11"/>
  <circle class="cls-1" cx="585.93" cy="11" r="11"/>
  <circle class="cls-1" cx="653.71" cy="11" r="11"/>
  <circle class="cls-1" cx="721.5" cy="11" r="11"/>
  <circle class="cls-1" cx="789.29" cy="11" r="11"/>
  <circle class="cls-1" cx="857.07" cy="11" r="11"/>
  <circle class="cls-1" cx="924.86" cy="11" r="11"/>
  <circle class="cls-1" cx="992.64" cy="11" r="11"/>
  <circle class="cls-1" cx="1060.43" cy="11" r="11"/>
  <circle class="cls-1" cx="1128.21" cy="11" r="11"/>
  <circle class="cls-1" cx="1196" cy="11" r="11"/>
  <circle class="cls-1" cx="1263.79" cy="11" r="11"/>
  <circle class="cls-1" cx="1331.57" cy="11" r="11"/>
  <circle class="cls-1" cx="1399.36" cy="11" r="11"/>
  <circle class="cls-1" cx="1467.14" cy="11" r="11"/>
  <circle class="cls-1" cx="1534.93" cy="11" r="11"/>
  <circle class="cls-1" cx="1602.71" cy="11" r="11"/>
  <circle class="cls-1" cx="1670.5" cy="11" r="11"/>
  <circle class="cls-1" cx="1738.29" cy="11" r="11"/>
  <circle class="cls-1" cx="1806.07" cy="11" r="11"/>
  <circle class="cls-1" cx="1873.86" cy="11" r="11"/>
  <circle class="cls-1" cx="1941.64" cy="11" r="11"/>
</svg>